HIERARCHY
ROOT joint_Root
{
	OFFSET 0.0 0.0 0.0
	CHANNELS 6 Xposition Yposition Zposition Zrotation Xrotation Yrotation 
	JOINT Hips
	{
		OFFSET -0.726466 93.3139 -2.00062
		CHANNELS 6 Xposition Yposition Zposition Zrotation Xrotation Yrotation 
		JOINT Spine
		{
			OFFSET 15.7357 0.0 0.0
			CHANNELS 6 Xposition Yposition Zposition Zrotation Xrotation Yrotation 
			JOINT Chest
			{
				OFFSET 8.98455 -0.406207 0.0
				CHANNELS 6 Xposition Yposition Zposition Zrotation Xrotation Yrotation 
				JOINT Neck
				{
					OFFSET 16.3773 0.0 0.0
					CHANNELS 6 Xposition Yposition Zposition Zrotation Xrotation Yrotation 
					JOINT Head
					{
						OFFSET 6.45672 0.0 0.0
						CHANNELS 6 Xposition Yposition Zposition Zrotation Xrotation Yrotation 
						End Site
						{
							OFFSET 0.0 0.0 0.0
						}
					}
				}
				JOINT Shoulder_L
				{
					OFFSET 12.9942 -0.242716 4.98039
					CHANNELS 6 Xposition Yposition Zposition Zrotation Xrotation Yrotation 
					JOINT UpperArm_L
					{
						OFFSET 5.34809 0.0 0.0
						CHANNELS 6 Xposition Yposition Zposition Zrotation Xrotation Yrotation 
						JOINT LowerArm_L
						{
							OFFSET 24.3286 1.87007e-05 0.0
							CHANNELS 6 Xposition Yposition Zposition Zrotation Xrotation Yrotation 
							JOINT Hand_L
							{
								OFFSET 22.2916 0.0 0.0
								CHANNELS 6 Xposition Yposition Zposition Zrotation Xrotation Yrotation 
								End Site
								{
									OFFSET 0.0 0.0 0.0
								}
							}
						}
					}
				}
				JOINT Shoulder_R
				{
					OFFSET 12.9945 -0.242716 -4.98039
					CHANNELS 6 Xposition Yposition Zposition Zrotation Xrotation Yrotation 
					JOINT UpperArm_R
					{
						OFFSET -5.34813 0.0 0.0
						CHANNELS 6 Xposition Yposition Zposition Zrotation Xrotation Yrotation 
						JOINT LowerArm_R
						{
							OFFSET -24.3289 0.000322201 0.0
							CHANNELS 6 Xposition Yposition Zposition Zrotation Xrotation Yrotation 
							JOINT Hand_R
							{
								OFFSET -22.2915 -0.000108084 0.0
								CHANNELS 6 Xposition Yposition Zposition Zrotation Xrotation Yrotation 
								End Site
								{
									OFFSET 0.0 0.0 0.0
								}
							}
						}
					}
				}
			}
		}
		JOINT UpperLeg_L
		{
			OFFSET -2.19248 -6.46944 0.0
			CHANNELS 6 Xposition Yposition Zposition Zrotation Xrotation Yrotation 
			JOINT LowerLeg_L
			{
				OFFSET 39.0811 0.0 -1.23785e-05
				CHANNELS 6 Xposition Yposition Zposition Zrotation Xrotation Yrotation 
				JOINT Foot_L
				{
					OFFSET 40.9854 0.0 -1.26872e-05
					CHANNELS 6 Xposition Yposition Zposition Zrotation Xrotation Yrotation 
					JOINT Toes_L
					{
						OFFSET 11.7543 0.0 0.0
						CHANNELS 6 Xposition Yposition Zposition Zrotation Xrotation Yrotation 
						End Site
						{
							OFFSET 0.0 0.0 0.0
						}
					}
				}
			}
		}
		JOINT UpperLeg_R
		{
			OFFSET -2.19251 6.46944 0.0
			CHANNELS 6 Xposition Yposition Zposition Zrotation Xrotation Yrotation 
			JOINT LowerLeg_R
			{
				OFFSET -39.0811 -0.00228153 -0.0401928
				CHANNELS 6 Xposition Yposition Zposition Zrotation Xrotation Yrotation 
				JOINT Foot_R
				{
					OFFSET -40.9854 0.0 0.0
					CHANNELS 6 Xposition Yposition Zposition Zrotation Xrotation Yrotation 
					JOINT Toes_R
					{
						OFFSET -11.7543 0.0 0.0
						CHANNELS 6 Xposition Yposition Zposition Zrotation Xrotation Yrotation 
						End Site
						{
							OFFSET 0.0 0.0 0.0
						}
					}
				}
			}
		}
	}
}
MOTION
Frames:	8
Frame Time:	0.0333333
0.000000 0.000000 0.000000 0.000000 0.000000 -0.000000 -0.766437 91.852900 -1.875000 87.852500 -5.289070 4.741370 15.735700 0.000005 -0.000001 72.633000 85.218200 -69.670900 8.984550 -0.406207 -0.000000 1.448580 -3.016350 5.958250 16.377300 -0.000001 -0.000001 3.993840 1.345280 -3.682820 6.456720 -0.000001 -0.000000 -0.333538 2.685780 -1.916560 12.994200 -0.242716 4.980390 -84.035800 -11.749900 -62.840900 5.348090 -0.000007 -0.000001 -61.171000 -57.011300 -93.043800 24.328600 0.000019 0.000005 -4.576320 -3.610040 -51.809700 22.291600 -0.000001 0.000005 15.312400 5.643480 -14.421800 12.994500 -0.242716 -4.980390 91.111800 -3.103030 -70.276800 -5.348130 -0.000001 -0.000004 -63.302600 77.392400 13.756200 -24.328900 0.000322 -0.000009 23.719900 2.395590 -84.566600 -22.291500 -0.000108 -0.000004 44.739500 5.668110 -25.143900 -2.192480 -6.469440 -0.000000 -170.150000 -18.552900 -2.998530 39.081100 -0.000007 -0.000012 -0.157250 0.336219 25.065700 40.985400 -0.000006 -0.000013 -5.688730 -2.858850 -65.249700 11.754300 -0.000000 0.000003 -0.000052 -0.000590 -16.600400 -2.192510 6.469440 -0.000001 175.772000 20.133200 176.488000 -39.081100 -0.002282 -0.040193 0.041640 -0.085114 24.241500 -40.985400 0.000008 0.000006 0.967256 3.591840 -64.312200 -11.754300 -0.000006 -0.000006 -0.005901 -0.069931 -19.419100
0.000000 0.000000 0.000000 0.000000 0.000000 -0.000000 -0.752363 91.854900 -1.863070 87.878700 -5.288520 4.750930 15.735700 0.000005 -0.000001 72.513700 85.220000 -69.563300 8.984550 -0.406207 -0.000000 1.439410 -3.033890 5.934830 16.377300 -0.000001 -0.000001 3.933180 1.278320 -3.667190 6.456720 -0.000001 -0.000000 -0.262738 2.646720 -1.916490 12.994200 -0.242716 4.980390 -84.051400 -11.716000 -62.835900 5.348090 -0.000007 -0.000001 -60.874000 -57.035900 -92.686100 24.328600 0.000019 0.000005 -4.571630 -3.606340 -51.809600 22.291600 -0.000001 0.000005 15.193100 5.644740 -14.532000 12.994500 -0.242716 -4.980390 91.077000 -2.997270 -70.224700 -5.348130 -0.000001 -0.000004 -63.143300 77.289300 13.695200 -24.328900 0.000322 -0.000009 23.831200 2.389360 -84.609000 -22.291500 -0.000108 -0.000004 44.682700 5.667730 -25.198100 -2.192480 -6.469440 -0.000000 -170.189000 -18.563300 -2.979040 39.081100 -0.000007 -0.000012 -0.154719 0.331131 25.044200 40.985400 -0.000006 -0.000013 -5.681020 -2.884000 -65.243500 11.754300 -0.000000 0.000003 -0.000038 -0.000449 -16.595000 -2.192510 6.469440 -0.000001 175.735000 20.067700 176.505000 -39.081100 -0.002282 -0.040193 0.040842 -0.083378 24.232800 -40.985400 0.000008 0.000006 0.888357 3.559190 -64.299800 -11.754300 -0.000006 -0.000006 -0.005824 -0.069229 -19.390500
0.000000 0.000000 0.000000 0.000000 0.000000 -0.000000 -0.756142 91.851700 -1.851400 87.880400 -5.274830 4.754860 15.735700 0.000005 -0.000001 72.257300 85.226000 -69.305600 8.984550 -0.406207 -0.000000 1.416090 -3.071700 5.937450 16.377300 -0.000001 -0.000001 3.949560 1.236320 -3.674870 6.456720 -0.000001 -0.000000 -0.259393 2.600480 -1.944080 12.994200 -0.242716 4.980390 -84.076400 -11.669700 -62.844000 5.348090 -0.000007 -0.000001 -60.320200 -57.067400 -92.111000 24.328600 0.000019 0.000005 -4.666750 -3.685020 -51.785300 22.291600 -0.000001 0.000005 15.229000 5.644300 -14.493300 12.994500 -0.242716 -4.980390 91.056300 -2.928280 -70.153400 -5.348130 -0.000001 -0.000004 -62.974100 77.208700 13.602200 -24.328900 0.000322 -0.000009 23.887700 2.373800 -84.658000 -22.291500 -0.000108 -0.000004 44.588100 5.667940 -25.167600 -2.192480 -6.469440 -0.000000 -170.180000 -18.530900 -2.969880 39.081100 -0.000007 -0.000012 -0.160030 0.342418 25.049300 40.985400 -0.000006 -0.000013 -5.681370 -2.846370 -65.255600 11.754300 -0.000000 0.000003 -0.000054 -0.000602 -16.600900 -2.192510 6.469440 -0.000001 175.728000 20.114200 176.501000 -39.081100 -0.002282 -0.040193 0.041083 -0.083785 24.265300 -40.985400 0.000008 0.000006 0.943166 3.555390 -64.323400 -11.754300 -0.000006 -0.000006 -0.005650 -0.067619 -19.324800
0.000000 0.000000 0.000000 0.000000 0.000000 -0.000000 -0.758172 91.843600 -1.839050 87.875500 -5.264230 4.748250 15.735700 0.000005 -0.000001 72.213200 85.230600 -69.262100 8.984550 -0.406207 -0.000000 1.405200 -3.076130 5.936170 16.377300 -0.000001 -0.000001 3.926610 1.199490 -3.672110 6.456720 -0.000001 -0.000000 -0.233742 2.557160 -1.960610 12.994200 -0.242716 4.980390 -84.101000 -11.634900 -62.872800 5.348090 -0.000007 -0.000001 -59.857200 -57.099100 -91.595600 24.328600 0.000019 0.000005 -4.517010 -3.571130 -51.746300 22.291600 -0.000001 0.000005 15.216700 5.643690 -14.439600 12.994500 -0.242716 -4.980390 91.049800 -2.898930 -70.083500 -5.348130 -0.000001 -0.000004 -62.971800 77.071100 13.619200 -24.328900 0.000322 -0.000009 23.861500 2.354080 -84.695600 -22.291500 -0.000108 -0.000004 44.420100 5.667580 -25.219100 -2.192480 -6.469440 -0.000000 -170.178000 -18.558800 -2.999860 39.081100 -0.000007 -0.000012 -0.156164 0.333249 25.108500 40.985400 -0.000006 -0.000013 -5.680660 -2.839440 -65.288100 11.754300 -0.000000 0.000003 -0.000047 -0.000536 -16.598400 -2.192510 6.469440 -0.000001 175.736000 20.087200 176.496000 -39.081100 -0.002282 -0.040193 0.041450 -0.084447 24.304300 -40.985400 0.000008 0.000006 0.926724 3.543460 -64.365100 -11.754300 -0.000006 -0.000006 -0.005875 -0.069692 -19.409300
0.000000 0.000000 0.000000 0.000000 0.000000 -0.000000 -0.760316 91.843200 -1.828540 87.897600 -5.271950 4.785060 15.735700 0.000005 -0.000001 72.276000 85.222700 -69.340100 8.984550 -0.406207 -0.000000 1.422700 -3.069660 5.906050 16.377300 -0.000001 -0.000001 3.957410 1.186840 -3.684060 6.456720 -0.000001 -0.000000 -0.262462 2.529810 -1.939290 12.994200 -0.242716 4.980390 -84.135000 -11.560200 -62.860600 5.348090 -0.000007 -0.000001 -59.420300 -57.050800 -91.144400 24.328600 0.000019 0.000005 -4.534250 -3.584900 -51.745800 22.291600 -0.000001 0.000005 15.184400 5.644120 -14.478200 12.994500 -0.242716 -4.980390 91.020800 -2.812330 -70.040200 -5.348130 -0.000001 -0.000004 -62.941800 77.024600 13.682000 -24.328900 0.000322 -0.000009 23.843000 2.336880 -84.729600 -22.291500 -0.000108 -0.000004 44.357200 5.667230 -25.269100 -2.192480 -6.469440 -0.000000 -170.179000 -18.551100 -2.940680 39.081100 -0.000007 -0.000012 -0.159407 0.340567 25.082800 40.985400 -0.000006 -0.000013 -5.694530 -2.866650 -65.282800 11.754300 -0.000000 0.000003 -0.000055 -0.000614 -16.601400 -2.192510 6.469440 -0.000001 175.698000 20.096800 176.532000 -39.081100 -0.002282 -0.040193 0.041409 -0.084313 24.315200 -40.985400 0.000008 0.000006 0.935409 3.540910 -64.380500 -11.754300 -0.000006 -0.000006 -0.005617 -0.067313 -19.312400
0.000000 0.000000 0.000000 0.000000 0.000000 -0.000000 -0.767627 91.839600 -1.824350 87.908400 -5.256980 4.766110 15.735700 0.000005 -0.000001 72.195400 85.219500 -69.267900 8.984550 -0.406207 -0.000000 1.424780 -3.083880 5.889400 16.377300 -0.000001 -0.000001 3.972310 1.187740 -3.687340 6.456720 -0.000001 -0.000000 -0.256097 2.543460 -1.969210 12.994200 -0.242716 4.980390 -84.163400 -11.501300 -62.856800 5.348090 -0.000007 -0.000001 -59.066400 -57.004800 -90.674500 24.328600 0.000019 0.000005 -4.467410 -3.527610 -51.778600 22.291600 -0.000001 0.000005 15.219200 5.642960 -14.377200 12.994500 -0.242716 -4.980390 91.006900 -2.770080 -70.015200 -5.348130 -0.000001 -0.000004 -62.732800 76.948300 13.487800 -24.328900 0.000322 -0.000009 23.858200 2.342700 -84.720300 -22.291500 -0.000108 -0.000004 44.273200 5.666900 -25.314100 -2.192480 -6.469440 -0.000000 -170.210000 -18.518700 -2.975090 39.081100 -0.000007 -0.000012 -0.154147 0.329009 25.104200 40.985400 -0.000006 -0.000013 -5.693180 -2.877050 -65.297800 11.754300 -0.000000 0.000003 -0.000046 -0.000527 -16.598000 -2.192510 6.469440 -0.000001 175.698000 20.088900 176.499000 -39.081100 -0.002282 -0.040193 0.042093 -0.085715 24.343200 -40.985400 0.000008 0.000006 0.947638 3.528970 -64.405300 -11.754300 -0.000006 -0.000006 -0.006042 -0.071220 -19.471700
0.000000 0.000000 0.000000 0.000000 0.000000 -0.000000 -0.782388 91.843800 -1.828170 87.906200 -5.217550 4.762230 15.735700 0.000005 -0.000001 72.218800 85.216300 -69.303600 8.984550 -0.406207 -0.000000 1.431640 -3.081260 5.864890 16.377300 -0.000001 -0.000001 3.992360 1.189560 -3.688960 6.456720 -0.000001 -0.000000 -0.239798 2.560480 -1.994900 12.994200 -0.242716 4.980390 -84.177200 -11.480500 -62.871100 5.348090 -0.000007 -0.000001 -58.610200 -56.920500 -90.051400 24.328600 0.000019 0.000005 -4.444670 -3.501410 -51.843300 22.291600 -0.000001 0.000005 15.230600 5.644030 -14.469900 12.994500 -0.242716 -4.980390 90.992900 -2.724330 -69.967200 -5.348130 -0.000001 -0.000004 -62.603500 76.923400 13.391100 -24.328900 0.000322 -0.000009 23.847200 2.324030 -84.759400 -22.291500 -0.000108 -0.000004 44.226700 5.666720 -25.340100 -2.192480 -6.469440 -0.000000 -170.192000 -18.480700 -2.963650 39.081100 -0.000007 -0.000012 -0.157919 0.337700 25.062400 40.985400 -0.000006 -0.000013 -5.710170 -2.874720 -65.271600 11.754300 -0.000000 0.000003 -0.000057 -0.000637 -16.602200 -2.192510 6.469440 -0.000001 175.705000 20.132600 176.498000 -39.081100 -0.002282 -0.040193 0.041299 -0.083926 24.351900 -40.985400 0.000008 0.000006 0.974886 3.529360 -64.388500 -11.754300 -0.000006 -0.000006 -0.005594 -0.067100 -19.303700
0.000000 0.000000 0.000000 0.000000 0.000000 -0.000000 -0.798488 91.833600 -1.829480 87.888300 -5.176310 4.804050 15.735700 0.000005 -0.000001 72.314000 85.189800 -69.409300 8.984550 -0.406207 -0.000000 1.486730 -3.080240 5.845380 16.377300 -0.000001 -0.000001 4.001290 1.178330 -3.692630 6.456720 -0.000001 -0.000000 -0.231322 2.560120 -2.016330 12.994200 -0.242716 4.980390 -84.216900 -11.406600 -62.882900 5.348090 -0.000007 -0.000001 -57.830800 -56.858200 -89.182200 24.328600 0.000019 0.000005 -4.423830 -3.480960 -51.874700 22.291600 -0.000001 0.000005 15.244700 5.642870 -14.368600 12.994500 -0.242716 -4.980390 90.974100 -2.665260 -69.914200 -5.348130 -0.000001 -0.000004 -62.291600 76.970000 13.130900 -24.328900 0.000322 -0.000009 23.926700 2.316950 -84.794700 -22.291500 -0.000108 -0.000004 44.238700 5.667730 -25.197500 -2.192480 -6.469440 -0.000000 -170.149000 -18.455800 -2.965690 39.081100 -0.000007 -0.000012 -0.160183 0.341412 25.135100 40.985400 -0.000006 -0.000013 -5.715580 -2.842760 -65.296900 11.754300 -0.000000 0.000003 -0.000058 -0.000643 -16.602500 -2.192510 6.469440 -0.000001 175.715000 20.204100 176.531000 -39.081100 -0.002282 -0.040193 0.041569 -0.084425 24.376700 -40.985400 0.000008 0.000006 0.976759 3.530710 -64.434100 -11.754300 -0.000006 -0.000006 -0.005660 -0.067712 -19.328600
